<?xml version="1.0" standalone="no"?>
<!DOCTYPE svg PUBLIC "-//W3C//DTD SVG 20010904//EN"
 "http://www.w3.org/TR/2001/REC-SVG-20010904/DTD/svg10.dtd">
<svg version="1.0" xmlns="http://www.w3.org/2000/svg"
 width="3240.000000pt" height="3240.000000pt" viewBox="0 0 3240.000000 3240.000000"
 preserveAspectRatio="xMidYMid meet">

<g transform="translate(0.000000,3240.000000) scale(0.100000,-0.100000)"
fill="#000000" stroke="none">
<path d="M6150 25263 c-39 -15 -70 -47 -95 -100 -26 -55 -27 -63 -21 -158 3
-55 17 -149 31 -209 l25 -109 -39 -42 c-51 -55 -67 -87 -110 -220 l-36 -110
-1 -594 c-1 -527 -3 -595 -17 -602 -9 -6 -18 -5 -22 0 -3 6 -12 8 -20 5 -7 -3
-22 -1 -32 5 -15 9 -13 10 10 5 16 -4 27 -2 27 4 0 19 -78 168 -95 182 -21 18
-71 17 -114 -1 l-34 -14 -81 88 c-45 48 -89 87 -99 87 -66 0 -157 -106 -157
-182 0 -29 8 -38 57 -73 165 -117 152 -111 259 -119 127 -10 145 -10 153 1 10
13 45 39 38 27 -3 -6 58 -49 149 -105 l156 -94 -104 -48 c-87 -41 -115 -60
-180 -124 -42 -42 -75 -80 -72 -85 6 -10 48 -1 87 19 36 18 34 6 -9 -42 -20
-22 -26 -27 -15 -11 49 68 -11 32 -103 -62 l-59 -60 -66 44 c-62 41 -69 44
-99 33 -24 -8 -36 -8 -46 0 -10 8 -21 8 -42 1 -15 -6 -38 -9 -51 -5 -30 7 -57
49 -51 80 3 16 0 26 -10 30 -13 5 -12 9 6 27 l21 22 -50 34 c-28 19 -47 37
-43 42 5 4 79 58 164 120 85 62 166 122 180 133 l25 19 -40 -6 c-22 -3 -94
-12 -160 -21 -166 -20 -299 -43 -370 -62 -52 -14 -69 -25 -131 -89 -124 -126
-373 -468 -691 -947 l-164 -247 193 -250 c106 -137 196 -249 200 -250 4 0 92
125 195 277 l188 278 3 -333 c2 -311 3 -333 20 -328 34 11 310 55 422 67 63 7
117 14 119 15 2 2 14 252 27 555 13 303 25 554 28 556 3 3 78 2 166 -2 160 -7
161 -8 141 -27 -12 -10 -21 -24 -22 -31 0 -7 -1 -52 -1 -100 0 -104 13 -127
72 -127 l36 0 -82 -380 c-45 -209 -85 -391 -88 -405 l-6 -25 80 0 c44 0 80 2
80 4 0 3 38 182 85 398 47 216 85 396 85 401 0 4 104 7 230 7 l230 0 0 335 c0
184 -2 335 -4 335 -2 0 -20 -7 -41 -16 -20 -8 -38 -14 -39 -12 -32 45 -123
189 -182 290 -5 8 243 146 284 158 15 4 99 39 187 77 203 89 199 88 237 69 43
-22 48 -12 7 13 l-34 21 33 0 c18 0 48 -7 67 -14 19 -8 35 -11 35 -6 0 17 -73
32 -122 27 l-50 -6 5 197 c3 121 2 174 -3 137 -4 -33 -8 -126 -9 -206 l-1
-147 -180 -77 c-100 -43 -183 -75 -186 -72 -8 7 13 731 27 927 18 274 55 446
122 575 18 33 33 63 35 68 2 4 -9 12 -25 17 -53 19 -65 56 -67 203 -2 99 -7
144 -21 181 -24 65 -97 141 -150 155 -41 11 -159 14 -185 4z m287 -349 c-3 -3
-12 -4 -19 -1 -8 3 -5 6 6 6 11 1 17 -2 13 -5z m-640 -2610 c-3 -3 -12 -4 -19
-1 -8 3 -5 6 6 6 11 1 17 -2 13 -5z m341 -11 c-10 -2 -26 -2 -35 0 -10 3 -2 5
17 5 19 0 27 -2 18 -5z"/>
<path d="M1760 25011 c-54 -18 -88 -41 -100 -70 -14 -35 -7 -77 19 -106 27
-30 70 -150 60 -166 -14 -23 -10 -48 11 -69 31 -31 47 -25 54 20 4 27 10 38
19 34 8 -3 47 6 88 20 41 14 97 28 126 32 46 6 52 9 56 33 l4 26 2 -27 c0 -16
5 -28 10 -28 5 0 17 -7 26 -16 8 -9 22 -13 30 -10 19 7 20 70 1 85 -7 6 -20
49 -27 94 -15 93 -33 118 -95 137 -49 14 -250 22 -284 11z"/>
<path d="M9600 24889 c-49 -15 -56 -23 -80 -85 l-20 -55 52 -59 c49 -56 55
-59 107 -65 31 -4 63 -9 71 -12 8 -3 23 -7 32 -8 10 -1 27 -10 38 -20 11 -10
22 -16 24 -14 11 11 36 132 36 171 0 53 -29 103 -78 131 -38 22 -133 31 -182
16z"/>
<path d="M9450 24710 c-24 -24 -26 -63 -4 -81 9 -7 13 -21 10 -33 -4 -15 5
-32 31 -58 21 -21 43 -38 50 -38 15 0 33 33 44 79 7 31 4 39 -43 93 -28 32
-55 58 -59 58 -5 0 -18 -9 -29 -20z"/>
<path d="M6589 24588 c5 -13 36 -82 69 -154 l60 -132 -59 -58 c-33 -32 -59
-65 -59 -74 0 -8 20 -98 44 -200 25 -101 42 -189 38 -195 -3 -5 -55 -79 -115
-163 -60 -85 -107 -156 -104 -158 3 -3 58 70 123 162 l117 166 -47 196 -47
196 62 62 62 63 -69 155 c-38 86 -72 156 -76 156 -4 0 -3 -10 1 -22z"/>
<path d="M5774 24412 l-91 -138 29 -58 29 -58 -21 -64 c-21 -63 -21 -68 -6
-129 20 -80 20 -86 -1 -78 -11 4 -14 3 -9 -5 4 -7 13 -12 21 -12 9 0 29 -65
64 -212 57 -234 59 -243 66 -236 3 3 -28 141 -69 307 -73 291 -75 303 -61 342
21 58 25 63 41 42 24 -32 15 -4 -27 78 l-40 81 74 112 c109 165 110 166 101
166 -5 0 -50 -62 -100 -138z"/>
<path d="M9425 24520 c-3 -11 -21 -27 -38 -35 -45 -22 -72 -61 -56 -81 10 -12
9 -13 -7 -8 -24 9 4 -25 96 -113 160 -155 261 -181 350 -91 33 32 37 44 18 51
-8 3 -5 6 6 6 16 1 17 6 11 49 -4 26 -9 50 -12 55 -7 12 -40 8 -53 -8 -18 -21
-49 -19 -127 10 -71 25 -103 53 -103 89 0 17 -61 96 -74 96 -3 0 -7 -9 -11
-20z"/>
<path d="M2120 24490 c-23 -15 -194 -52 -221 -48 -18 2 -35 -9 -71 -50 -27
-29 -48 -58 -48 -66 0 -9 -7 -12 -20 -9 -21 6 -29 -12 -8 -19 6 -2 24 -65 39
-139 22 -112 24 -135 13 -142 -27 -16 -64 -62 -65 -82 -2 -40 2 -71 18 -120
18 -54 97 -195 138 -243 24 -29 24 -30 5 -35 -11 -3 -20 -10 -20 -15 0 -7 10
-7 33 0 32 10 105 27 120 28 5 0 5 5 2 10 -3 6 -18 7 -32 4 -24 -6 -25 -6 -12
17 10 17 14 66 14 174 0 132 -3 155 -22 197 -23 50 -41 64 -100 76 -37 8 -38
8 -54 82 -10 41 -20 91 -23 112 l-6 38 177 -140 c98 -77 180 -140 184 -140 3
0 34 64 69 143 34 78 65 145 69 150 4 4 25 -72 47 -168 l41 -175 -50 -15 c-28
-8 -56 -15 -64 -15 -7 0 -16 -12 -20 -27 -3 -16 -29 -122 -57 -237 l-51 -208
-35 -12 c-43 -14 -59 -44 -67 -130 -5 -55 -3 -68 16 -94 l21 -31 -24 -103
c-13 -57 -23 -104 -22 -105 1 -2 137 44 301 101 290 100 299 104 314 136 14
31 23 36 91 52 41 10 84 23 95 28 11 5 79 26 150 45 150 42 213 67 222 90 11
31 -36 176 -84 256 -26 44 -51 79 -56 79 -5 0 -67 -30 -138 -67 -112 -59 -129
-71 -124 -88 12 -40 9 -47 -27 -60 -21 -7 -38 -11 -38 -9 0 2 34 124 75 271
41 147 73 268 72 270 -2 1 -51 -11 -110 -26 -59 -16 -108 -26 -110 -23 -3 4
-12 36 -21 72 -16 60 -16 73 -2 165 8 55 12 102 10 105 -12 11 -23 -29 -34
-121 -10 -84 -10 -105 4 -152 9 -30 16 -61 16 -69 0 -9 -37 -23 -110 -42 -61
-16 -112 -27 -115 -25 -2 3 -20 76 -40 164 -20 88 -40 174 -46 191 -8 25 -5
40 16 85 26 56 31 79 17 79 -4 0 -18 -24 -30 -52 l-22 -53 -20 30 c-11 17 -20
38 -20 48 0 10 -8 17 -18 17 -10 0 -29 11 -42 25 -24 26 -63 32 -90 15z m80
-25 l23 -25 -26 13 c-15 6 -27 18 -27 25 0 17 3 16 30 -13z m-342 -89 c-16
-12 -28 -24 -28 -27 0 -3 65 -59 144 -125 130 -106 143 -120 134 -139 -6 -11
-12 -21 -13 -23 -2 -2 -69 49 -150 113 -103 82 -145 121 -141 132 3 8 6 19 6
23 0 15 62 81 69 74 3 -3 -6 -16 -21 -28z m418 -27 c16 -31 15 -33 -52 -184
-61 -140 -69 -152 -86 -142 -10 7 -18 16 -18 21 0 11 132 336 136 336 2 0 11
-14 20 -31z m-357 -364 c35 -18 48 -53 63 -172 12 -95 1 -224 -21 -246 -17
-17 -57 19 -100 91 -43 71 -101 218 -101 253 0 12 15 36 34 55 38 38 77 44
125 19z"/>
<path d="M9281 24378 c44 -65 223 -233 274 -257 92 -46 190 -23 260 61 40 47
14 46 -35 -1 -23 -22 -61 -47 -85 -56 -52 -21 -91 -11 -171 42 -52 34 -187
168 -219 217 -10 14 -24 26 -32 26 -11 0 -9 -8 8 -32z"/>
<path d="M6987 24356 c-59 -22 -101 -60 -135 -124 -38 -70 -49 -141 -56 -337
l-5 -140 14 175 c9 107 22 200 34 240 37 120 115 183 228 184 35 1 63 4 63 9
0 12 -102 7 -143 -7z"/>
<path d="M5620 24184 c0 -10 9 -95 20 -189 11 -93 20 -179 19 -190 0 -36 -39
52 -54 122 -17 79 -30 98 -20 28 10 -62 28 -116 60 -173 14 -25 25 -56 25 -71
0 -14 5 -33 11 -41 7 -11 8 -2 4 30 -3 25 -17 146 -30 269 -14 124 -27 227
-30 229 -3 3 -5 -3 -5 -14z"/>
<path d="M8983 24123 c-3 -10 -39 -103 -79 -208 -67 -172 -79 -216 -55 -189 5
5 34 76 65 158 32 82 66 170 76 197 12 29 16 51 10 54 -6 4 -13 -2 -17 -12z"/>
<path d="M1510 24014 c0 -13 116 -144 128 -144 19 0 16 5 -48 80 -54 62 -80
83 -80 64z"/>
<path d="M9971 23923 c-5 -21 -35 -137 -66 -258 -31 -121 -72 -273 -91 -337
-37 -126 -39 -138 -25 -138 10 0 88 274 156 550 25 102 48 193 51 203 3 9 1
17 -5 17 -6 0 -15 -17 -20 -37z"/>
<path d="M8660 23892 c0 -5 10 -14 23 -21 13 -7 29 -21 35 -32 12 -19 12 -19
-10 -5 -51 32 -258 72 -258 48 0 -5 27 -13 61 -16 105 -12 186 -43 230 -87 45
-45 62 -46 32 -2 -11 15 -25 43 -33 61 -13 33 -44 62 -67 62 -7 0 -13 -4 -13
-8z"/>
<path d="M1656 23768 c7 -29 12 -53 10 -55 -1 -2 -15 11 -31 27 -28 30 -55 39
-55 20 0 -5 11 -17 25 -26 47 -30 91 -113 116 -216 12 -54 27 -98 31 -98 14 0
9 29 -39 216 -28 111 -52 184 -59 184 -9 0 -9 -12 2 -52z"/>
<path d="M5206 23778 c14 -24 205 -258 210 -258 7 0 -15 38 -26 45 -6 3 -10
18 -10 31 0 27 -59 154 -71 154 -4 0 9 -32 28 -70 20 -39 33 -73 31 -75 -3 -3
-38 38 -79 90 -41 52 -78 94 -82 95 -5 0 -5 -6 -1 -12z"/>
<path d="M8591 23650 c-24 -15 -48 -35 -53 -44 -5 -10 11 -2 36 17 24 19 51
37 58 40 7 2 11 7 8 9 -3 3 -25 -7 -49 -22z"/>
<path d="M8435 23627 c-17 -41 -20 -127 -5 -127 6 0 8 11 4 25 -3 14 1 48 10
76 20 60 13 79 -9 26z"/>
<path d="M8831 23653 c0 -5 11 -30 25 -58 24 -51 23 -29 -2 32 -13 30 -25 43
-23 26z"/>
<path d="M8750 23645 c0 -3 11 -22 24 -43 13 -20 32 -63 41 -96 9 -32 18 -56
20 -54 9 9 -30 124 -53 161 -23 35 -32 44 -32 32z"/>
<path d="M8676 23568 c4 -7 18 -27 30 -45 39 -52 26 -59 -28 -17 -28 23 -27
21 6 -11 27 -27 41 -34 46 -25 6 9 11 8 20 -6 8 -14 10 -15 6 -2 -5 18 -75
118 -83 118 -2 0 -1 -6 3 -12z"/>
<path d="M8527 23521 c-3 -15 1 -24 14 -31 22 -12 24 -4 5 29 -13 23 -13 23
-19 2z"/>
<path d="M1468 23395 c-7 -7 -3 -62 18 -290 17 -175 52 -398 84 -534 19 -77
70 -335 70 -353 0 -4 -10 -7 -21 -5 -35 3 -33 -20 2 -32 18 -6 55 -36 82 -67
l50 -55 71 6 c59 6 80 3 124 -14 58 -23 108 -28 96 -10 -4 6 -35 24 -70 40
l-64 29 20 33 c36 58 25 65 -61 41 -21 -6 -49 60 -49 115 0 34 -7 49 -38 84
-59 64 -64 118 -61 596 l3 396 -59 6 c-165 18 -191 20 -197 14z"/>
<path d="M10070 23300 c0 -5 8 -10 18 -10 14 0 15 -2 2 -10 -22 -14 -8 -20 33
-13 36 5 37 7 21 24 -18 20 -74 26 -74 9z"/>
<path d="M10742 23179 c7 -5 36 -8 63 -8 60 1 50 6 -23 12 -32 2 -48 1 -40 -4z"/>
<path d="M10871 23147 c0 -16 3 -26 9 -22 10 6 105 -38 133 -63 16 -15 17 -14
11 1 -3 10 -37 32 -75 50 -37 17 -70 39 -72 47 -3 8 -5 2 -6 -13z"/>
<path d="M10860 23064 c0 -33 3 -42 14 -38 18 7 76 -22 76 -38 0 -6 3 -8 6 -5
11 10 -17 37 -53 52 -30 13 -47 45 -23 45 21 0 120 -55 124 -69 3 -10 4 -8 3
4 -1 14 -23 31 -74 56 l-73 36 0 -43z"/>
<path d="M5700 23052 c0 -5 18 -21 40 -36 22 -14 40 -23 40 -19 -1 12 -80 66
-80 55z"/>
<path d="M5535 23013 c22 -22 276 -195 281 -191 5 5 -251 187 -276 196 -10 3
-12 2 -5 -5z"/>
<path d="M5485 22973 c24 -23 277 -195 281 -190 6 5 -248 185 -274 194 -11 4
-14 3 -7 -4z"/>
<path d="M5802 22975 c20 -20 103 -73 107 -69 3 3 -1 9 -9 14 -8 5 -30 20 -49
34 -30 22 -65 37 -49 21z"/>
<path d="M5430 22938 c17 -18 294 -207 298 -203 3 3 3 6 1 8 -79 63 -324 222
-299 195z"/>
<path d="M5760 22933 c0 -4 23 -23 50 -41 28 -17 50 -29 50 -25 0 7 -34 32
-87 66 -7 4 -13 4 -13 0z"/>
<path d="M6736 22832 c-153 -58 -274 -108 -268 -110 10 -3 528 189 561 208 46
27 -38 -1 -293 -98z"/>
<path d="M5381 22897 c38 -32 312 -217 315 -214 7 6 -293 217 -308 217 -6 0
-9 -2 -7 -3z"/>
<path d="M5460 22773 c0 -10 180 -136 186 -130 4 4 -34 33 -153 116 -18 12
-33 19 -33 14z"/>
<path d="M6600 22581 c0 -11 108 -60 170 -76 30 -8 78 -14 105 -13 29 0 37 3
20 5 -88 10 -158 28 -222 58 -40 19 -73 30 -73 26z"/>
<path d="M2507 22425 c-257 -62 -471 -115 -474 -119 -4 -3 -4 -8 -1 -11 6 -7
939 215 951 225 5 4 5 10 0 12 -4 3 -219 -46 -476 -107z"/>
<path d="M2865 22420 c-60 -15 -266 -62 -457 -106 -191 -43 -348 -83 -348 -88
0 -8 481 -2064 501 -2138 l10 -38 97 78 c53 42 110 86 126 98 l29 21 -137 874
c-75 481 -139 888 -142 905 -5 29 -3 32 27 38 18 3 34 5 35 3 2 -2 121 -352
265 -778 144 -425 265 -784 270 -797 l9 -22 62 38 c35 21 98 58 141 81 67 37
78 47 74 65 -3 11 -99 420 -213 909 -168 715 -211 887 -223 886 -9 -1 -65 -13
-126 -29z"/>
<path d="M7056 22278 c-3 -18 -7 -73 -9 -123 -3 -49 -8 -98 -12 -107 -6 -16
-1 -18 38 -18 38 0 49 5 67 27 19 25 21 38 18 121 -3 84 -5 96 -27 113 -13 10
-34 19 -47 19 -18 0 -24 -6 -28 -32z"/>
<path d="M11867 19288 c-131 -1465 -238 -2666 -238 -2670 1 -5 273 -8 606 -8
l605 0 4 23 c5 23 247 3089 246 3120 0 17 26 35 35 25 4 -4 1080 -3078 1092
-3120 5 -17 31 -18 368 -18 l362 0 27 73 c14 39 260 742 545 1561 286 819 524
1493 530 1499 7 7 14 7 20 1 5 -5 65 -717 134 -1582 69 -866 127 -1576 130
-1578 2 -2 276 -3 608 -2 l604 3 -237 2640 c-130 1452 -237 2652 -238 2668 l0
27 -649 0 -649 0 -26 -67 c-516 -1344 -1156 -2998 -1160 -2998 -4 0 -272 689
-595 1530 l-589 1530 -648 3 -649 2 -238 -2662z"/>
<path d="M18040 19280 l0 -2670 1530 0 1530 0 0 535 0 535 -920 0 -920 0 0
535 0 535 880 0 880 0 0 535 0 535 -880 0 -880 0 0 530 0 530 920 0 920 0 0
535 0 535 -1530 0 -1530 0 0 -2670z"/>
<path d="M21800 19280 l0 -2670 868 0 c936 0 990 2 1262 56 515 100 969 349
1360 743 213 215 346 397 474 651 191 376 276 759 276 1235 0 660 -204 1227
-613 1708 -413 485 -1008 822 -1607 911 -217 32 -335 36 -1172 36 l-848 0 0
-2670z m1507 1580 c149 -10 306 -38 408 -72 355 -119 647 -372 828 -718 258
-491 242 -1162 -39 -1646 -166 -286 -445 -524 -744 -634 -166 -61 -309 -85
-567 -96 l-173 -7 0 1592 0 1591 73 0 c39 0 136 -5 214 -10z"/>
<path d="M26580 19280 l0 -2670 610 0 610 0 0 2670 0 2670 -610 0 -610 0 0
-2670z"/>
<path d="M8080 21772 c0 -4 235 -88 522 -186 287 -98 528 -181 536 -184 9 -3
13 0 10 8 -4 12 -1022 368 -1055 370 -7 0 -13 -4 -13 -8z"/>
<path d="M6676 21635 l-70 -63 13 -204 c7 -111 17 -205 22 -209 14 -8 141 -31
146 -26 6 6 -27 507 -35 538 l-7 27 -69 -63z"/>
<path d="M8133 21632 c-4 -10 -80 -198 -169 -420 l-163 -403 56 -25 c31 -13
83 -36 115 -51 32 -14 61 -24 63 -21 3 2 97 191 209 419 l203 414 -96 33
c-204 70 -212 72 -218 54z"/>
<path d="M3820 21562 c0 -4 5 -13 11 -19 6 -6 17 -28 24 -49 11 -31 15 -35 20
-21 9 23 -23 97 -42 97 -7 0 -13 -4 -13 -8z"/>
<path d="M3710 21557 c0 -1 9 -24 19 -52 15 -38 21 -46 26 -32 9 21 -11 73
-31 81 -8 3 -14 4 -14 3z"/>
<path d="M3762 21553 c10 -22 27 -60 34 -78 7 -19 8 -19 12 3 5 31 -17 82 -35
82 -8 0 -13 -3 -11 -7z"/>
<path d="M3320 21532 c0 -12 680 -305 688 -297 3 3 1 9 -4 14 -10 9 -624 274
-661 286 -13 3 -23 2 -23 -3z"/>
<path d="M8695 21447 c-8 -24 -236 -940 -238 -958 -3 -23 205 -167 212 -146 3
6 79 237 170 513 l166 501 -153 51 c-105 35 -154 47 -157 39z"/>
<path d="M5175 18840 c-114 -17 -224 -100 -279 -208 -46 -92 -56 -157 -56
-394 l0 -217 -882 -4 c-958 -3 -898 1 -999 -59 -55 -33 -91 -72 -125 -141 -54
-106 -54 -89 -53 -1327 1 -630 4 -1359 8 -1620 7 -461 8 -477 30 -532 48 -123
166 -209 313 -228 105 -13 5423 -13 5508 1 84 13 177 56 225 105 21 22 52 68
69 104 l31 65 7 580 c5 319 7 1064 6 1655 l-3 1075 -23 67 c-43 126 -158 221
-302 248 -32 6 -378 10 -896 10 l-844 0 -1 88 c-4 413 -15 496 -75 583 -35 51
-109 105 -181 132 -57 22 -65 22 -743 23 -377 1 -708 -1 -735 -6z m1200 -418
c43 -19 75 -51 96 -97 15 -32 19 -65 19 -172 l0 -133 -620 0 -620 0 0 128 c1
179 29 234 142 273 49 18 87 19 503 16 343 -2 457 -5 480 -15z m-378 -1043
c365 -49 689 -233 908 -514 201 -258 295 -533 295 -861 0 -215 -42 -400 -134
-589 -181 -371 -503 -632 -916 -741 -99 -27 -117 -28 -320 -29 -191 0 -225 3
-305 23 -503 126 -879 484 -1020 967 -115 395 -37 837 206 1178 73 102 199
230 304 309 99 74 310 179 430 213 173 50 385 67 552 44z"/>
<path d="M5640 16988 c-33 -17 -51 -35 -67 -68 -22 -43 -23 -53 -23 -337 l0
-292 -307 -3 c-307 -3 -308 -3 -342 -27 -58 -41 -71 -86 -71 -246 0 -126 2
-145 23 -185 12 -25 37 -55 56 -67 33 -23 39 -23 337 -23 l303 0 3 -309 c3
-295 4 -311 24 -337 48 -65 60 -69 242 -72 158 -2 169 -1 206 20 22 13 49 39
60 58 20 33 21 53 24 338 l3 302 296 0 c326 0 342 3 386 64 20 29 22 44 25
198 4 196 -4 223 -73 263 l-42 25 -296 0 -297 0 0 273 c-1 149 -5 291 -9 315
-10 49 -50 98 -98 118 -23 10 -76 14 -176 14 -128 0 -147 -2 -187 -22z"/>
<path d="M11910 12360 l0 -2670 610 0 610 0 0 1070 0 1070 860 0 860 0 0
-1070 0 -1070 610 0 610 0 0 2670 0 2670 -610 0 -610 0 0 -1065 0 -1065 -860
0 -860 0 0 1065 0 1065 -610 0 -610 0 0 -2670z"/>
<path d="M16850 12360 l0 -2670 1530 0 1530 0 0 530 0 530 -920 0 -920 0 0
540 0 540 880 0 880 0 0 535 0 535 -880 0 -880 0 0 530 0 530 920 0 920 0 0
535 0 535 -1530 0 -1530 0 0 -2670z"/>
<path d="M20610 12360 l0 -2670 1525 0 1525 0 0 530 0 530 -917 2 -918 3 -3
2138 -2 2137 -605 0 -605 0 0 -2670z"/>
<path d="M24270 12360 l0 -2670 605 0 605 0 2 988 3 987 500 6 c527 6 584 10
785 60 149 37 231 68 385 144 509 252 807 680 874 1260 14 116 14 398 0 506
-47 376 -172 652 -399 879 -241 243 -570 404 -955 469 -217 36 -370 41 -1402
41 l-1003 0 0 -2670z m1755 1690 c172 -20 359 -82 472 -157 120 -79 191 -174
235 -314 20 -65 23 -93 22 -239 0 -151 -3 -171 -26 -237 -35 -99 -72 -158
-137 -223 -69 -67 -145 -113 -262 -157 -171 -64 -242 -74 -561 -80 l-288 -5 0
711 0 711 228 0 c125 0 268 -5 317 -10z"/>
<path d="M28417 8422 c-34 -37 -15 -82 33 -82 34 0 50 17 50 52 0 45 -53 64
-83 30z"/>
<path d="M28896 8424 c-19 -18 -21 -55 -4 -72 7 -7 24 -12 38 -12 14 0 31 5
38 12 28 28 2 88 -38 88 -10 0 -26 -7 -34 -16z"/>
<path d="M29378 8429 c-22 -12 -24 -62 -4 -78 46 -38 111 25 71 69 -20 22 -41
25 -67 9z"/>
<path d="M29858 8428 c-24 -20 -28 -44 -12 -67 18 -25 56 -27 78 -5 20 19 20
34 0 62 -17 25 -42 28 -66 10z"/>
<path d="M30324 8415 c-15 -23 -15 -27 0 -50 10 -15 26 -25 41 -25 15 0 31 10
41 25 15 23 15 27 0 50 -10 15 -26 25 -41 25 -15 0 -31 -10 -41 -25z"/>
<path d="M30807 8422 c-21 -23 -22 -46 -1 -66 22 -23 60 -20 78 6 20 29 20 34
-4 58 -25 25 -52 26 -73 2z"/>
<path d="M31285 8420 c-27 -29 -10 -74 28 -78 37 -4 57 13 57 49 0 47 -53 65
-85 29z"/>
<path d="M31766 8424 c-19 -18 -21 -55 -4 -72 7 -7 24 -12 38 -12 34 0 50 17
50 52 0 43 -53 64 -84 32z"/>
<path d="M32248 8429 c-22 -12 -24 -62 -4 -78 46 -38 111 25 71 69 -20 22 -41
25 -67 9z"/>
<path d="M28170 8150 c-24 -44 21 -92 65 -72 53 24 38 92 -20 92 -24 0 -37 -6
-45 -20z"/>
<path d="M28650 8150 c-24 -45 21 -92 66 -71 23 10 29 27 24 61 -5 35 -73 42
-90 10z"/>
<path d="M29131 8151 c-17 -31 -13 -49 14 -67 31 -20 63 -10 71 23 9 35 -7 57
-44 61 -22 2 -34 -2 -41 -17z"/>
<path d="M29610 8156 c-18 -23 -8 -59 22 -75 24 -14 28 -14 47 3 23 21 27 56
9 74 -17 17 -63 15 -78 -2z"/>
<path d="M30092 8158 c-18 -18 -14 -53 9 -74 19 -17 23 -17 47 -3 30 16 40 52
22 75 -15 17 -61 19 -78 2z"/>
<path d="M30572 8158 c-17 -17 -15 -53 4 -72 20 -21 37 -20 65 3 20 16 22 23
14 47 -8 22 -18 30 -40 32 -17 2 -36 -3 -43 -10z"/>
<path d="M31053 8162 c-24 -16 -19 -68 8 -83 44 -23 93 26 69 71 -11 20 -53
27 -77 12z"/>
<path d="M31520 8150 c-24 -44 21 -92 65 -72 53 24 38 92 -20 92 -24 0 -37 -6
-45 -20z"/>
<path d="M32000 8150 c-23 -44 21 -92 65 -72 49 23 30 92 -25 92 -19 0 -33 -7
-40 -20z"/>
<path d="M28417 7882 c-34 -37 -15 -82 33 -82 32 0 50 17 50 46 0 48 -52 70
-83 36z"/>
<path d="M28896 7884 c-19 -18 -21 -55 -4 -72 7 -7 24 -12 38 -12 49 0 68 51
32 83 -23 21 -46 22 -66 1z"/>
<path d="M29378 7889 c-22 -12 -24 -62 -4 -78 46 -38 111 25 71 69 -20 22 -41
25 -67 9z"/>
<path d="M29850 7880 c-24 -24 -24 -29 -4 -58 39 -56 118 -4 80 53 -20 30 -49
32 -76 5z"/>
<path d="M30330 7880 c-11 -11 -20 -26 -20 -33 0 -20 33 -47 58 -47 19 0 52
33 52 52 0 14 -39 48 -55 48 -8 0 -24 -9 -35 -20z"/>
<path d="M30804 7875 c-24 -37 -6 -75 35 -75 52 0 73 55 33 88 -25 19 -50 14
-68 -13z"/>
<path d="M31285 7880 c-27 -29 -10 -74 28 -78 37 -4 57 13 57 49 0 47 -53 65
-85 29z"/>
<path d="M31767 7882 c-34 -37 -15 -82 33 -82 32 0 50 17 50 46 0 48 -52 70
-83 36z"/>
<path d="M32248 7889 c-21 -12 -24 -59 -6 -77 7 -7 24 -12 38 -12 49 0 68 51
32 83 -21 19 -39 21 -64 6z"/>
<path d="M28200 7613 c-19 -7 -40 -33 -40 -50 0 -18 37 -53 55 -53 8 0 24 9
35 20 11 11 20 27 20 35 0 16 -35 56 -47 54 -5 0 -15 -3 -23 -6z"/>
<path d="M28661 7601 c-12 -12 -21 -28 -21 -36 0 -26 39 -57 63 -49 32 9 40
19 40 49 0 47 -49 69 -82 36z"/>
<path d="M29142 7604 c-30 -21 -29 -59 3 -80 23 -15 27 -15 50 0 32 21 33 59
3 80 -12 9 -25 16 -28 16 -3 0 -16 -7 -28 -16z"/>
<path d="M29622 7604 c-30 -21 -29 -59 3 -80 23 -15 27 -15 50 0 32 21 33 59
3 80 -12 9 -25 16 -28 16 -3 0 -16 -7 -28 -16z"/>
<path d="M30102 7604 c-30 -21 -29 -59 3 -80 23 -15 27 -15 50 0 32 21 33 59
3 80 -12 9 -25 16 -28 16 -3 0 -16 -7 -28 -16z"/>
<path d="M30582 7604 c-30 -20 -29 -59 2 -79 51 -34 103 39 56 77 -27 22 -30
22 -58 2z"/>
<path d="M31063 7610 c-22 -9 -28 -25 -23 -60 4 -36 52 -48 79 -21 26 26 26
46 1 71 -22 22 -25 23 -57 10z"/>
<path d="M31531 7601 c-26 -26 -26 -46 -1 -71 11 -11 27 -20 35 -20 18 0 55
35 55 53 0 43 -59 68 -89 38z"/>
<path d="M32010 7600 c-11 -11 -20 -27 -20 -35 0 -17 35 -55 50 -55 6 0 22 11
35 24 29 29 24 63 -12 77 -32 12 -30 12 -53 -11z"/>
<path d="M28416 7271 c-23 -26 -17 -63 14 -78 49 -24 92 37 54 78 -9 10 -25
19 -34 19 -9 0 -25 -9 -34 -19z"/>
<path d="M28896 7271 c-38 -41 5 -102 54 -78 14 7 26 23 28 36 4 26 -23 61
-48 61 -9 0 -25 -9 -34 -19z"/>
<path d="M29378 7279 c-25 -14 -23 -64 3 -83 28 -19 61 -7 74 29 8 23 6 30
-14 46 -26 21 -38 23 -63 8z"/>
<path d="M29858 7278 c-28 -23 -29 -48 -3 -73 25 -26 50 -25 73 3 17 22 15 39
-8 62 -23 23 -40 25 -62 8z"/>
<path d="M30330 7270 c-11 -11 -20 -26 -20 -33 0 -18 22 -45 40 -48 20 -4 60
10 60 21 0 5 3 15 6 23 6 18 -29 57 -51 57 -8 0 -24 -9 -35 -20z"/>
<path d="M30810 7270 c-23 -23 -25 -40 -7 -62 22 -28 47 -29 72 -3 26 25 25
50 -3 73 -22 17 -39 15 -62 -8z"/>
<path d="M31286 7271 c-23 -26 -17 -63 14 -78 33 -16 64 3 68 43 6 49 -49 72
-82 35z"/>
<path d="M31767 7272 c-24 -27 -21 -59 8 -78 23 -15 27 -15 50 0 30 20 33 56
7 79 -24 22 -45 21 -65 -1z"/>
<path d="M32245 7274 c-21 -21 -16 -63 10 -80 46 -31 97 35 59 77 -21 23 -47
24 -69 3z"/>
<path d="M28174 6975 c-15 -23 -15 -27 0 -50 10 -15 26 -25 41 -25 15 0 31 10
41 25 15 23 15 27 0 50 -10 15 -26 25 -41 25 -15 0 -31 -10 -41 -25z"/>
<path d="M28656 6978 c-20 -28 -20 -43 0 -62 22 -23 60 -20 78 6 20 29 20 34
-4 58 -26 26 -55 25 -74 -2z"/>
<path d="M29135 6980 c-27 -29 -10 -74 28 -78 37 -4 57 13 57 49 0 47 -53 65
-85 29z"/>
<path d="M29616 6984 c-19 -18 -21 -55 -4 -72 7 -7 24 -12 38 -12 34 0 50 17
50 52 0 43 -53 64 -84 32z"/>
<path d="M30098 6989 c-21 -12 -24 -59 -6 -77 7 -7 24 -12 38 -12 32 0 50 17
50 46 0 44 -43 66 -82 43z"/>
<path d="M30578 6989 c-22 -12 -24 -62 -4 -78 46 -38 111 25 71 69 -20 22 -41
25 -67 9z"/>
<path d="M31050 6980 c-24 -24 -24 -29 -4 -58 18 -26 56 -29 78 -6 20 19 20
34 0 62 -19 27 -48 28 -74 2z"/>
<path d="M31524 6975 c-15 -23 -15 -27 0 -50 10 -15 26 -25 41 -25 15 0 31 10
41 25 15 23 15 27 0 50 -10 15 -26 25 -41 25 -15 0 -31 -10 -41 -25z"/>
<path d="M32007 6982 c-21 -23 -22 -46 -1 -66 22 -22 60 -20 78 5 35 50 -36
106 -77 61z"/>
<path d="M28416 6704 c-32 -31 -11 -84 32 -84 35 0 52 17 52 52 0 43 -53 64
-84 32z"/>
<path d="M28898 6709 c-21 -12 -24 -59 -6 -77 7 -7 24 -12 38 -12 32 0 50 17
50 46 0 44 -43 66 -82 43z"/>
<path d="M29376 6707 c-22 -16 -18 -65 5 -80 47 -29 101 32 64 73 -21 23 -44
25 -69 7z"/>
<path d="M29844 6695 c-15 -23 -15 -27 0 -50 20 -30 56 -33 79 -7 22 24 21 45
-1 65 -27 24 -59 21 -78 -8z"/>
<path d="M30324 6695 c-15 -23 -15 -27 0 -50 10 -15 26 -25 41 -25 15 0 31 10
41 25 15 23 15 27 0 50 -10 15 -26 25 -41 25 -15 0 -31 -10 -41 -25z"/>
<path d="M30807 6702 c-22 -24 -21 -45 1 -65 27 -24 59 -21 78 8 15 23 15 27
0 50 -20 30 -56 33 -79 7z"/>
<path d="M31285 6700 c-27 -29 -10 -74 28 -78 37 -4 57 13 57 49 0 47 -53 65
-85 29z"/>
<path d="M31766 6704 c-19 -18 -21 -55 -4 -72 7 -7 24 -12 38 -12 34 0 50 17
50 52 0 43 -53 64 -84 32z"/>
<path d="M32242 6708 c-7 -7 -12 -24 -12 -38 0 -34 17 -50 52 -50 27 0 48 23
48 54 0 37 -61 61 -88 34z"/>
<path d="M28174 6415 c-15 -23 -15 -27 0 -50 20 -30 56 -33 79 -7 22 24 21 45
-1 65 -27 24 -59 21 -78 -8z"/>
<path d="M28657 6422 c-22 -24 -21 -45 1 -65 27 -24 59 -21 78 8 15 23 15 27
0 50 -20 30 -56 33 -79 7z"/>
<path d="M29136 6424 c-32 -31 -8 -84 38 -84 29 0 46 18 46 50 0 14 -5 31 -12
38 -17 17 -54 15 -72 -4z"/>
<path d="M29616 6424 c-32 -31 -11 -84 32 -84 35 0 52 16 52 50 0 14 -5 31
-12 38 -17 17 -54 15 -72 -4z"/>
<path d="M30092 6428 c-7 -7 -12 -24 -12 -38 0 -34 17 -50 52 -50 27 0 48 23
48 54 0 37 -61 61 -88 34z"/>
<path d="M30572 6428 c-7 -7 -12 -24 -12 -38 0 -14 5 -31 12 -38 28 -28 88 -2
88 38 0 40 -60 66 -88 38z"/>
<path d="M31044 6415 c-15 -23 -15 -27 0 -50 20 -30 56 -33 79 -7 22 24 21 45
-1 65 -27 24 -59 21 -78 -8z"/>
<path d="M31527 6422 c-22 -24 -21 -45 1 -65 27 -24 59 -21 78 8 15 23 15 27
0 50 -20 30 -56 33 -79 7z"/>
<path d="M32007 6422 c-22 -24 -21 -45 1 -65 27 -24 59 -21 78 8 15 23 15 27
0 50 -20 30 -56 33 -79 7z"/>
<path d="M28422 6114 c-27 -18 -29 -55 -4 -77 24 -22 45 -21 65 1 23 26 21 58
-5 76 -12 9 -25 16 -28 16 -3 0 -16 -7 -28 -16z"/>
<path d="M28902 6114 c-27 -18 -29 -55 -4 -77 24 -22 45 -21 65 1 23 26 21 58
-5 76 -12 9 -25 16 -28 16 -3 0 -16 -7 -28 -16z"/>
<path d="M29382 6114 c-31 -22 -30 -71 3 -86 55 -25 103 52 53 86 -12 9 -25
16 -28 16 -3 0 -16 -7 -28 -16z"/>
<path d="M29858 6118 c-28 -22 -31 -55 -9 -77 26 -26 46 -26 71 -1 11 11 20
27 20 35 0 18 -35 55 -53 55 -7 0 -20 -6 -29 -12z"/>
<path d="M30330 6110 c-11 -11 -20 -27 -20 -35 0 -8 9 -24 20 -35 11 -11 27
-20 35 -20 8 0 24 9 35 20 11 11 20 27 20 35 0 8 -9 24 -20 35 -11 11 -27 20
-35 20 -8 0 -24 -9 -35 -20z"/>
<path d="M30810 6110 c-27 -27 -25 -56 5 -76 21 -14 31 -15 50 -6 46 21 29
102 -22 102 -7 0 -22 -9 -33 -20z"/>
<path d="M31292 6114 c-12 -8 -22 -26 -22 -39 0 -23 32 -55 57 -55 19 0 43 30
43 55 0 20 -32 55 -50 55 -3 0 -16 -7 -28 -16z"/>
<path d="M31772 6114 c-27 -18 -29 -55 -4 -77 24 -22 45 -21 65 1 23 26 21 58
-5 76 -12 9 -25 16 -28 16 -3 0 -16 -7 -28 -16z"/>
<path d="M32252 6114 c-27 -18 -29 -55 -4 -77 24 -22 45 -21 65 1 23 26 21 58
-5 76 -12 9 -25 16 -28 16 -3 0 -16 -7 -28 -16z"/>
<path d="M28180 5830 c-11 -11 -20 -27 -20 -35 0 -8 9 -24 20 -35 11 -11 27
-20 35 -20 8 0 24 9 35 20 11 11 20 27 20 35 0 8 -9 24 -20 35 -11 11 -27 20
-35 20 -8 0 -24 -9 -35 -20z"/>
<path d="M28660 5830 c-11 -11 -20 -27 -20 -35 0 -8 9 -24 20 -35 11 -11 27
-20 35 -20 8 0 24 9 35 20 11 11 20 27 20 35 0 8 -9 24 -20 35 -11 11 -27 20
-35 20 -8 0 -24 -9 -35 -20z"/>
<path d="M29142 5834 c-12 -8 -22 -26 -22 -39 0 -23 32 -55 57 -55 19 0 43 30
43 55 0 25 -24 55 -43 55 -7 0 -23 -7 -35 -16z"/>
<path d="M29622 5834 c-31 -22 -26 -63 10 -83 24 -14 28 -14 47 3 26 24 27 58
3 79 -23 21 -32 21 -60 1z"/>
<path d="M30097 5832 c-23 -25 -21 -55 4 -78 19 -17 23 -17 47 -3 36 20 41 61
10 83 -29 21 -41 20 -61 -2z"/>
<path d="M30576 5834 c-29 -29 -10 -94 27 -94 25 0 57 32 57 55 0 23 -32 55
-57 55 -6 0 -19 -7 -27 -16z"/>
<path d="M31050 5830 c-11 -11 -20 -27 -20 -35 0 -8 9 -24 20 -35 11 -11 27
-20 35 -20 8 0 24 9 35 20 11 11 20 27 20 35 0 8 -9 24 -20 35 -11 11 -27 20
-35 20 -8 0 -24 -9 -35 -20z"/>
<path d="M31530 5830 c-11 -11 -20 -27 -20 -35 0 -8 9 -24 20 -35 11 -11 27
-20 35 -20 8 0 24 9 35 20 11 11 20 27 20 35 0 8 -9 24 -20 35 -11 11 -27 20
-35 20 -8 0 -24 -9 -35 -20z"/>
<path d="M32010 5830 c-11 -11 -20 -27 -20 -35 0 -18 35 -55 53 -55 25 0 50
27 50 55 0 28 -25 55 -50 55 -7 0 -22 -9 -33 -20z"/>
<path d="M28417 5552 c-24 -27 -21 -59 8 -78 23 -15 27 -15 50 0 30 20 33 56
7 79 -24 22 -45 21 -65 -1z"/>
<path d="M28897 5552 c-24 -27 -21 -59 8 -78 23 -15 27 -15 50 0 30 20 33 56
7 79 -24 22 -45 21 -65 -1z"/>
<path d="M29376 5554 c-24 -24 -20 -61 9 -80 23 -15 27 -15 50 0 32 21 33 59
3 80 -28 20 -43 20 -62 0z"/>
<path d="M29849 5549 c-30 -30 -5 -89 38 -89 18 0 53 37 53 55 0 8 -9 24 -20
35 -25 25 -45 25 -71 -1z"/>
<path d="M30330 5550 c-11 -11 -20 -27 -20 -35 0 -8 9 -24 20 -35 11 -11 27
-20 35 -20 8 0 24 9 35 20 11 11 20 27 20 35 0 8 -9 24 -20 35 -11 11 -27 20
-35 20 -8 0 -24 -9 -35 -20z"/>
<path d="M30812 5554 c-27 -19 -28 -48 -2 -74 23 -23 39 -25 64 -7 35 26 14
97 -29 97 -6 0 -21 -7 -33 -16z"/>
<path d="M31292 5554 c-30 -21 -29 -59 3 -80 23 -15 27 -15 50 0 29 19 33 56
9 80 -19 20 -34 20 -62 0z"/>
<path d="M31767 5552 c-24 -27 -21 -59 8 -78 23 -15 27 -15 50 0 30 20 33 56
7 79 -24 22 -45 21 -65 -1z"/>
<path d="M32247 5552 c-24 -27 -21 -59 8 -78 23 -15 27 -15 50 0 30 20 33 56
7 79 -24 22 -45 21 -65 -1z"/>
<path d="M28180 5270 c-11 -11 -20 -27 -20 -35 0 -8 9 -24 20 -35 11 -11 27
-20 35 -20 8 0 24 9 35 20 11 11 20 27 20 35 0 8 -9 24 -20 35 -11 11 -27 20
-35 20 -8 0 -24 -9 -35 -20z"/>
<path d="M28660 5270 c-25 -25 -25 -45 1 -71 14 -14 27 -18 42 -13 44 13 57
54 28 83 -26 26 -46 26 -71 1z"/>
<path d="M29137 5272 c-24 -27 -21 -59 8 -78 23 -15 27 -15 50 0 46 30 26 96
-28 96 -8 0 -21 -8 -30 -18z"/>
<path d="M29617 5272 c-24 -27 -21 -59 8 -78 23 -15 27 -15 50 0 30 20 33 56
7 79 -24 22 -45 21 -65 -1z"/>
<path d="M30097 5272 c-24 -27 -21 -59 8 -78 23 -15 27 -15 50 0 30 20 33 56
7 79 -24 22 -45 21 -65 -1z"/>
<path d="M30578 5279 c-27 -16 -23 -65 7 -85 23 -15 27 -15 50 0 30 20 33 56
7 79 -21 19 -39 21 -64 6z"/>
<path d="M31049 5269 c-14 -14 -18 -27 -13 -42 13 -44 54 -57 83 -28 26 26 26
46 1 71 -25 25 -45 25 -71 -1z"/>
<path d="M31530 5270 c-11 -11 -20 -27 -20 -35 0 -8 9 -24 20 -35 11 -11 27
-20 35 -20 8 0 24 9 35 20 11 11 20 27 20 35 0 8 -9 24 -20 35 -11 11 -27 20
-35 20 -8 0 -24 -9 -35 -20z"/>
<path d="M32012 5274 c-27 -19 -28 -48 -2 -74 26 -26 36 -25 65 4 26 26 25 51
-3 74 -21 16 -33 15 -60 -4z"/>
<path d="M28410 4979 c-26 -47 25 -100 69 -72 20 13 26 60 10 79 -18 22 -66
18 -79 -7z"/>
<path d="M28892 4988 c-7 -7 -12 -24 -12 -38 0 -34 17 -50 52 -50 37 0 57 38
40 75 -13 27 -58 35 -80 13z"/>
<path d="M29372 4988 c-7 -7 -12 -24 -12 -38 0 -14 5 -31 12 -38 28 -28 88 -2
88 38 0 40 -60 66 -88 38z"/>
<path d="M29844 4975 c-15 -23 -15 -27 0 -50 20 -30 56 -33 79 -7 22 24 21 45
-1 65 -27 24 -59 21 -78 -8z"/>
<path d="M30327 4982 c-22 -24 -21 -45 1 -65 27 -24 59 -21 78 8 15 23 15 27
0 50 -20 30 -56 33 -79 7z"/>
<path d="M30807 4982 c-22 -24 -21 -45 1 -65 27 -24 59 -21 78 8 15 23 15 27
0 50 -20 30 -56 33 -79 7z"/>
<path d="M31286 4984 c-32 -31 -8 -84 38 -84 29 0 46 18 46 50 0 14 -5 31 -12
38 -17 17 -54 15 -72 -4z"/>
<path d="M31762 4988 c-7 -7 -12 -24 -12 -38 0 -33 17 -50 50 -50 33 0 50 17
50 50 0 33 -17 50 -50 50 -14 0 -31 -5 -38 -12z"/>
<path d="M32242 4988 c-7 -7 -12 -24 -12 -38 0 -14 5 -31 12 -38 28 -28 88 -2
88 38 0 40 -60 66 -88 38z"/>
<path d="M28174 4695 c-15 -23 -15 -27 0 -50 20 -30 56 -33 79 -7 22 24 21 45
-1 65 -27 24 -59 21 -78 -8z"/>
<path d="M28657 4702 c-22 -24 -21 -45 1 -65 27 -24 59 -21 78 8 15 23 15 27
0 50 -20 30 -56 33 -79 7z"/>
<path d="M29136 4704 c-21 -21 -20 -47 2 -67 37 -34 82 -15 82 33 0 14 -5 31
-12 38 -17 17 -54 15 -72 -4z"/>
<path d="M29612 4708 c-30 -30 -2 -88 42 -88 29 0 46 18 46 50 0 33 -17 50
-50 50 -14 0 -31 -5 -38 -12z"/>
<path d="M30091 4706 c-16 -19 -10 -66 10 -79 26 -16 68 0 75 30 4 14 2 33 -3
42 -13 21 -66 26 -82 7z"/>
<path d="M30572 4708 c-7 -7 -12 -24 -12 -38 0 -32 17 -50 45 -50 25 0 55 29
55 53 0 38 -61 62 -88 35z"/>
<path d="M31044 4695 c-15 -23 -15 -27 0 -50 20 -30 56 -33 79 -7 22 24 21 45
-1 65 -27 24 -59 21 -78 -8z"/>
<path d="M31527 4702 c-22 -24 -21 -45 1 -65 27 -24 59 -21 78 8 15 23 15 27
0 50 -20 30 -56 33 -79 7z"/>
<path d="M32006 4704 c-21 -21 -20 -47 2 -67 27 -24 59 -21 78 8 15 23 15 27
0 50 -19 29 -56 33 -80 9z"/>
<path d="M28412 4428 c-27 -27 -3 -88 34 -88 31 0 54 21 54 48 0 35 -16 52
-50 52 -14 0 -31 -5 -38 -12z"/>
<path d="M28892 4428 c-20 -20 -15 -66 9 -78 47 -26 100 25 72 69 -13 20 -64
26 -81 9z"/>
<path d="M29372 4428 c-15 -15 -16 -60 0 -76 18 -18 53 -14 73 8 27 30 10 74
-30 78 -17 2 -36 -3 -43 -10z"/>
<path d="M29844 4415 c-15 -23 -15 -27 0 -50 20 -30 56 -33 79 -7 21 23 22 46
1 66 -24 24 -61 20 -80 -9z"/>
<path d="M30324 4419 c-17 -19 -17 -23 -3 -47 11 -20 23 -27 44 -27 21 0 33 7
44 27 14 24 14 28 -3 47 -11 12 -29 21 -41 21 -12 0 -30 -9 -41 -21z"/>
<path d="M30806 4424 c-21 -21 -20 -47 2 -67 27 -24 59 -21 78 8 15 23 15 27
0 50 -19 29 -56 33 -80 9z"/>
<path d="M31280 4421 c-15 -28 -12 -46 8 -64 37 -34 82 -15 82 33 0 14 -5 31
-12 38 -19 19 -66 15 -78 -7z"/>
<path d="M31762 4428 c-27 -27 -3 -88 34 -88 31 0 54 21 54 48 0 35 -16 52
-50 52 -14 0 -31 -5 -38 -12z"/>
<path d="M32242 4428 c-20 -20 -15 -66 9 -78 49 -27 96 20 69 69 -12 24 -58
29 -78 9z"/>
<path d="M23730 2110 l0 -2110 187 0 c173 0 186 1 165 16 -12 8 -22 26 -22 39
0 21 32 55 52 55 14 0 48 -39 48 -55 0 -8 -9 -24 -20 -35 l-20 -20 233 1 c127
0 225 3 217 6 -21 8 -30 24 -30 55 0 26 23 48 49 48 16 0 51 -38 51 -55 0 -8
-9 -24 -20 -35 l-20 -20 228 1 c125 0 221 3 214 6 -7 3 -18 16 -23 30 -17 46
27 86 71 63 30 -16 28 -77 -2 -90 -15 -5 60 -9 210 -9 l232 -1 -20 20 c-11 11
-20 27 -20 35 0 17 35 55 51 55 49 0 68 -66 27 -94 -21 -15 -3 -16 210 -16
l232 0 -20 20 c-27 27 -25 56 5 76 23 15 27 15 50 0 32 -21 33 -59 3 -80 -21
-15 -3 -16 212 -16 215 0 233 1 212 16 -30 21 -29 59 3 80 23 15 27 15 50 0
32 -21 33 -59 3 -80 -21 -15 -3 -16 212 -16 215 0 233 1 212 16 -30 21 -29 59
3 80 23 15 27 15 50 0 32 -21 33 -59 3 -80 -21 -15 -3 -16 212 -16 215 0 233
1 212 16 -37 26 -20 94 24 94 19 0 54 -36 54 -55 0 -8 -9 -24 -20 -35 l-20
-20 233 1 c149 0 224 4 210 9 -46 18 -24 100 26 100 16 0 51 -38 51 -55 0 -8
-9 -24 -20 -35 -20 -20 -20 -20 2205 -20 l2225 0 0 2110 0 2110 -4335 0 -4335
0 0 -2110z m425 1956 c8 -24 6 -31 -14 -47 -13 -10 -29 -19 -36 -19 -21 0 -45
29 -45 54 0 31 20 47 55 44 22 -2 32 -10 40 -32z m475 14 c24 -45 -25 -94 -69
-71 -23 13 -29 59 -9 79 20 20 66 15 78 -8z m468 8 c20 -20 15 -66 -8 -78 -40
-21 -88 16 -73 57 12 33 57 45 81 21z m480 0 c21 -21 15 -67 -12 -79 -45 -21
-90 26 -66 71 12 23 58 28 78 8z m485 -9 c29 -47 -32 -101 -73 -64 -23 20 -25
37 -9 66 13 24 66 23 82 -2z m475 9 c26 -26 0 -88 -36 -88 -23 0 -52 30 -52
55 0 28 18 45 50 45 14 0 31 -5 38 -12z m486 -20 c17 -50 -42 -89 -78 -52 -19
19 -21 55 -4 72 7 7 26 12 43 10 22 -2 32 -10 39 -30z m476 12 c24 -45 -25
-94 -69 -71 -23 13 -29 59 -9 79 20 20 66 15 78 -8z m474 4 c21 -21 20 -40 -4
-64 -23 -23 -33 -24 -61 -10 -22 12 -26 59 -7 78 17 17 54 15 72 -4z m514 4
c18 -18 14 -53 -8 -73 -17 -15 -24 -16 -45 -7 -32 15 -41 37 -27 68 13 27 58
34 80 12z m480 0 c26 -26 0 -88 -36 -88 -23 0 -52 30 -52 55 0 28 18 45 50 45
14 0 31 -5 38 -12z m487 -22 c8 -24 6 -31 -14 -47 -13 -10 -29 -19 -36 -19
-21 0 -45 29 -45 54 0 31 20 47 55 44 22 -2 32 -10 40 -32z m469 18 c21 -21
20 -40 -4 -64 -23 -23 -33 -24 -61 -10 -22 12 -26 59 -7 78 17 17 54 15 72 -4z
m474 4 c7 -7 12 -25 12 -40 0 -54 -79 -61 -93 -9 -11 44 50 80 81 49z m480 0
c27 -27 3 -88 -34 -88 -18 0 -54 36 -54 54 0 37 61 61 88 34z m485 -9 c14 -23
0 -67 -24 -74 -24 -8 -69 19 -69 41 0 8 5 24 11 35 13 24 66 23 82 -2z m475 9
c20 -20 14 -56 -13 -74 -23 -15 -27 -15 -50 0 -44 29 -28 86 25 86 14 0 31 -5
38 -12z m484 -12 c14 -31 5 -53 -27 -68 -21 -9 -28 -8 -45 7 -39 35 -20 85 32
85 20 0 32 -7 40 -24z m-8421 -246 c23 -13 26 -62 5 -79 -46 -38 -111 25 -71
69 20 22 37 25 66 10z m483 -6 c19 -18 21 -55 4 -72 -31 -31 -88 -4 -88 42 0
20 28 46 50 46 10 0 26 -7 34 -16z m481 -4 c15 -16 17 -26 9 -48 -17 -50 -94
-39 -94 14 0 49 52 70 85 34z m480 0 c27 -29 10 -74 -28 -78 -36 -4 -57 13
-57 49 0 47 53 65 85 29z m484 -12 c14 -24 14 -28 -3 -47 -36 -39 -86 -21 -86
31 0 51 63 63 89 16z m469 20 c7 -7 12 -24 12 -38 0 -53 -57 -69 -86 -25 -15
23 -15 27 0 50 18 27 54 33 74 13z m476 -1 c22 -16 18 -65 -5 -80 -47 -29
-101 32 -64 73 21 23 44 25 69 7z m477 3 c23 -13 26 -62 5 -79 -46 -38 -111
25 -71 69 20 22 37 25 66 10z m483 -6 c32 -32 11 -84 -34 -84 -29 0 -50 22
-50 54 0 20 28 46 50 46 10 0 26 -7 34 -16z m522 -9 c15 -23 15 -27 0 -50 -29
-44 -86 -28 -86 25 0 53 57 69 86 25z m465 15 c22 -12 26 -59 7 -78 -20 -20
-56 -14 -74 13 -15 23 -15 27 0 50 18 27 36 31 67 15z m483 -3 c22 -16 18 -65
-5 -80 -47 -29 -101 32 -64 73 21 23 44 25 69 7z m481 -3 c19 -20 16 -63 -6
-77 -26 -16 -68 0 -75 29 -12 48 46 83 81 48z m480 -4 c24 -27 13 -68 -22 -76
-33 -9 -57 6 -61 38 -6 50 49 76 83 38z m480 0 c24 -27 13 -68 -22 -76 -34 -9
-57 6 -61 42 -6 49 49 72 83 34z m481 -5 c15 -23 15 -27 0 -50 -30 -45 -86
-28 -86 27 0 49 59 65 86 23z m472 13 c7 -7 12 -24 12 -38 0 -53 -57 -69 -86
-25 -15 23 -15 27 0 50 18 27 54 33 74 13z m473 2 c22 -12 26 -59 7 -78 -17
-17 -48 -15 -70 5 -22 20 -23 32 -2 61 17 24 35 28 65 12z m-7917 -303 c8 -23
6 -31 -12 -49 -30 -30 -75 -16 -80 25 -5 38 15 59 52 55 23 -2 33 -10 40 -31z
m470 17 c21 -20 20 -37 -3 -65 -16 -20 -23 -22 -47 -14 -51 18 -42 95 12 95
12 0 30 -7 38 -16z m474 4 c7 -7 12 -24 12 -38 0 -53 -57 -69 -86 -25 -15 23
-15 27 0 50 18 27 54 33 74 13z m481 -2 c21 -25 9 -69 -21 -80 -50 -17 -89 42
-52 78 19 20 58 21 73 2z m484 -7 c29 -47 -32 -101 -73 -64 -23 20 -25 37 -9
66 13 24 66 23 82 -2z m475 9 c28 -28 2 -88 -38 -88 -40 0 -66 60 -38 88 7 7
24 12 38 12 14 0 31 -5 38 -12z m486 -20 c17 -50 -42 -89 -78 -52 -19 19 -21
55 -4 72 7 7 26 12 43 10 22 -2 32 -10 39 -30z m470 16 c22 -21 20 -47 -4 -69
-44 -40 -107 25 -69 71 15 19 54 18 73 -2z m482 -9 c15 -23 15 -27 0 -50 -27
-42 -86 -26 -86 23 0 55 56 72 86 27z m517 4 c29 -47 -32 -101 -73 -64 -23 20
-25 37 -9 66 13 24 66 23 82 -2z m481 -11 c17 -50 -42 -89 -78 -52 -19 19 -21
55 -4 72 7 7 26 12 43 10 22 -2 32 -10 39 -30z m470 16 c21 -20 20 -43 -1 -66
-31 -34 -83 -12 -83 36 0 44 52 63 84 30z m480 0 c21 -21 20 -40 -4 -64 -23
-23 -33 -24 -61 -10 -22 12 -26 59 -7 78 17 17 54 15 72 -4z m474 4 c7 -7 12
-25 12 -40 0 -54 -79 -61 -93 -9 -11 44 50 80 81 49z m480 0 c19 -19 15 -66
-7 -78 -11 -5 -24 -10 -30 -10 -16 0 -51 38 -51 54 0 37 61 61 88 34z m485 -9
c16 -26 0 -68 -29 -75 -29 -7 -64 18 -64 47 0 44 70 65 93 28z m475 9 c17 -17
15 -48 -5 -70 -20 -22 -41 -23 -65 -1 -20 18 -23 36 -8 64 12 22 59 26 78 7z
m486 -20 c17 -50 -42 -89 -78 -52 -19 19 -21 55 -4 72 7 7 26 12 43 10 22 -2
32 -10 39 -30z m-8415 -262 c16 -19 10 -66 -10 -79 -26 -16 -68 0 -75 29 -12
47 55 87 85 50z m475 -2 c32 -32 11 -84 -34 -84 -29 0 -50 22 -50 54 0 20 28
46 50 46 10 0 26 -7 34 -16z m480 0 c9 -8 16 -24 16 -34 0 -40 -60 -66 -88
-38 -28 28 -2 88 38 88 10 0 26 -7 34 -16z m481 -4 c24 -27 13 -68 -22 -76
-34 -9 -57 6 -61 40 -6 53 47 76 83 36z m484 -12 c14 -24 14 -28 -3 -47 -35
-39 -86 -21 -86 29 0 55 62 68 89 18z m469 20 c7 -7 12 -24 12 -38 0 -53 -57
-69 -86 -25 -15 23 -15 27 0 50 18 27 54 33 74 13z m480 0 c7 -7 12 -24 12
-38 0 -48 -45 -67 -82 -33 -22 20 -23 41 -1 65 18 21 53 24 71 6z m473 2 c22
-12 26 -59 7 -78 -28 -28 -88 -2 -88 38 0 22 26 50 46 50 9 0 24 -5 35 -10z
m483 -6 c32 -32 11 -84 -34 -84 -29 0 -50 22 -50 54 0 20 28 46 50 46 10 0 26
-7 34 -16z m522 -9 c15 -23 15 -27 0 -50 -29 -44 -86 -28 -86 25 0 53 57 69
86 25z m472 13 c7 -7 12 -24 12 -38 0 -53 -57 -69 -86 -25 -15 23 -15 27 0 50
18 27 54 33 74 13z m480 0 c7 -7 12 -24 12 -38 0 -48 -45 -67 -82 -33 -22 20
-23 41 -1 65 18 21 53 24 71 6z m476 -4 c31 -30 9 -84 -34 -84 -24 0 -50 26
-50 50 0 24 26 50 50 50 10 0 26 -7 34 -16z m480 0 c31 -30 9 -84 -34 -84 -24
0 -50 26 -50 50 0 24 26 50 50 50 10 0 26 -7 34 -16z m478 -1 c22 -20 23 -41
1 -65 -32 -36 -83 -17 -83 32 0 48 45 67 82 33z m484 -8 c15 -23 15 -27 0 -50
-29 -44 -86 -28 -86 25 0 53 57 69 86 25z m472 13 c7 -7 12 -24 12 -38 0 -53
-57 -69 -86 -25 -15 23 -15 27 0 50 18 27 54 33 74 13z m480 0 c7 -7 12 -24
12 -38 0 -48 -45 -67 -82 -33 -22 20 -23 32 -2 61 17 24 53 29 72 10z m-7934
-334 c21 -20 20 -43 -1 -66 -32 -36 -83 -17 -83 32 0 14 5 31 12 38 17 17 54
15 72 -4z m482 -5 c17 -19 17 -23 3 -47 -27 -49 -89 -37 -89 17 0 51 51 69 86
30z m472 9 c7 -7 12 -24 12 -38 0 -53 -57 -69 -86 -25 -15 23 -15 27 0 50 18
27 54 33 74 13z m480 0 c7 -7 12 -24 12 -38 0 -31 -17 -50 -44 -50 -25 0 -56
28 -56 51 0 40 60 65 88 37z m481 -2 c21 -25 9 -69 -21 -80 -50 -17 -89 42
-52 78 19 20 58 21 73 2z m481 -7 c25 -45 -12 -89 -60 -74 -48 15 -31 95 20
95 19 0 33 -7 40 -21z m474 5 c21 -20 20 -43 -1 -66 -31 -34 -83 -12 -83 36 0
44 52 63 84 30z m480 0 c21 -20 20 -43 -1 -66 -32 -36 -83 -17 -83 32 0 14 5
31 12 38 17 17 54 15 72 -4z m482 -9 c15 -23 15 -27 0 -50 -29 -44 -86 -28
-86 25 0 53 57 69 86 25z m517 4 c16 -26 0 -68 -29 -75 -29 -7 -64 18 -64 47
0 44 70 65 93 28z m471 5 c31 -30 9 -84 -34 -84 -40 0 -66 60 -38 88 17 17 54
15 72 -4z m480 0 c21 -20 20 -43 -1 -66 -32 -36 -83 -17 -83 32 0 14 5 31 12
38 17 17 54 15 72 -4z m482 -9 c15 -23 15 -27 0 -50 -29 -44 -86 -28 -86 25 0
53 57 69 86 25z m472 13 c7 -7 12 -24 12 -38 0 -63 -71 -70 -93 -9 -14 40 51
77 81 47z m480 0 c17 -17 15 -63 -2 -78 -23 -18 -59 -8 -75 22 -14 24 -14 28
3 47 21 23 56 27 74 9z m480 0 c7 -7 12 -24 12 -38 0 -31 -17 -50 -44 -50 -25
0 -56 28 -56 51 0 40 60 65 88 37z m482 -7 c14 -27 13 -47 -6 -65 -30 -31 -84
-9 -84 34 0 45 69 69 90 31z m474 3 c31 -30 9 -84 -34 -84 -40 0 -66 60 -38
88 17 17 54 15 72 -4z m-8401 -295 c29 -47 -32 -101 -73 -64 -23 20 -25 37 -9
66 13 24 66 23 82 -2z m475 9 c26 -26 0 -88 -36 -88 -23 0 -52 30 -52 55 0 28
18 45 50 45 14 0 31 -5 38 -12z m480 0 c27 -27 0 -88 -39 -88 -40 0 -65 60
-37 88 7 7 24 12 38 12 14 0 31 -5 38 -12z m486 -20 c17 -50 -42 -89 -78 -52
-19 19 -21 55 -4 72 7 7 26 12 43 10 22 -2 32 -10 39 -30z m476 12 c24 -45
-25 -94 -69 -71 -23 13 -29 59 -9 79 20 20 66 15 78 -8z m468 8 c20 -20 15
-66 -8 -78 -40 -21 -88 16 -73 57 12 33 57 45 81 21z m480 0 c21 -21 15 -67
-12 -79 -45 -21 -90 26 -66 71 12 23 58 28 78 8z m485 -9 c29 -47 -32 -101
-73 -64 -23 20 -25 37 -9 66 13 24 66 23 82 -2z m475 9 c26 -26 0 -88 -36 -88
-23 0 -52 30 -52 55 0 28 18 45 50 45 14 0 31 -5 38 -12z m517 -12 c13 -19 14
-29 6 -45 -25 -45 -91 -33 -91 17 0 54 56 72 85 28z m473 12 c19 -19 15 -66
-7 -78 -11 -5 -24 -10 -30 -10 -16 0 -51 38 -51 54 0 37 61 61 88 34z m480 0
c28 -28 2 -88 -38 -88 -11 0 -27 11 -36 25 -24 36 -6 75 34 75 15 0 33 -5 40
-12z m485 -9 c29 -47 -32 -101 -73 -64 -23 20 -25 37 -9 66 13 24 66 23 82 -2z
m481 -11 c8 -22 6 -32 -9 -48 -22 -24 -42 -25 -67 -3 -38 34 -15 86 37 81 22
-2 32 -10 39 -30z m480 0 c17 -50 -42 -89 -78 -52 -19 19 -21 55 -4 72 7 7 26
12 43 10 22 -2 32 -10 39 -30z m470 16 c21 -21 20 -40 -4 -64 -23 -23 -33 -24
-61 -10 -22 12 -26 59 -7 78 17 17 54 15 72 -4z m483 -13 c21 -44 -22 -85 -65
-62 -26 14 -33 45 -15 71 20 28 63 23 80 -9z m471 17 c19 -19 15 -66 -7 -78
-11 -5 -24 -10 -30 -10 -16 0 -51 38 -51 54 0 37 61 61 88 34z m-7923 -302 c8
-24 6 -31 -14 -47 -13 -10 -29 -19 -36 -19 -21 0 -45 29 -45 54 0 31 20 47 55
44 22 -2 32 -10 40 -32z m475 14 c24 -45 -25 -94 -69 -71 -23 13 -29 59 -9 79
20 20 66 15 78 -8z m464 14 c24 -9 21 -71 -4 -84 -44 -24 -88 17 -70 64 10 26
38 34 74 20z m484 -6 c21 -21 15 -67 -12 -79 -45 -21 -90 26 -66 71 12 23 58
28 78 8z m485 -9 c14 -23 0 -67 -24 -74 -24 -8 -69 19 -69 41 0 8 5 24 11 35
13 24 66 23 82 -2z m475 9 c26 -26 0 -88 -36 -88 -23 0 -52 30 -52 55 0 28 18
45 50 45 14 0 31 -5 38 -12z m487 -22 c8 -24 6 -31 -14 -47 -13 -10 -29 -19
-36 -19 -21 0 -45 29 -45 54 0 31 20 47 55 44 22 -2 32 -10 40 -32z m475 14
c24 -45 -25 -94 -69 -71 -23 13 -29 59 -9 79 20 20 66 15 78 -8z m480 0 c24
-45 -25 -94 -69 -71 -23 13 -29 59 -9 79 20 20 66 15 78 -8z m508 8 c26 -26 0
-88 -36 -88 -23 0 -52 30 -52 55 0 28 18 45 50 45 14 0 31 -5 38 -12z m480 0
c26 -26 0 -88 -36 -88 -23 0 -52 30 -52 55 0 28 18 45 50 45 14 0 31 -5 38
-12z m487 -22 c8 -24 6 -31 -14 -47 -13 -10 -29 -19 -36 -19 -21 0 -45 29 -45
54 0 31 20 47 55 44 22 -2 32 -10 40 -32z m469 18 c9 -8 16 -22 16 -30 0 -18
-36 -54 -54 -54 -37 0 -61 61 -34 88 17 17 54 15 72 -4z m474 4 c7 -7 12 -25
12 -40 0 -54 -79 -61 -93 -9 -11 44 50 80 81 49z m480 0 c19 -19 15 -66 -7
-78 -11 -5 -24 -10 -30 -10 -16 0 -51 38 -51 54 0 37 61 61 88 34z m485 -9
c14 -23 0 -67 -24 -74 -24 -8 -69 19 -69 41 0 8 5 24 11 35 13 24 66 23 82 -2z
m475 9 c18 -18 14 -53 -9 -74 -19 -17 -23 -17 -47 -3 -30 16 -40 52 -22 75 15
17 61 19 78 2z m482 -7 c16 -31 12 -49 -15 -67 -23 -15 -27 -15 -50 0 -27 18
-33 54 -13 74 19 19 66 15 78 -7z m-8407 -282 c14 -23 1 -67 -23 -74 -43 -14
-82 35 -60 75 14 25 67 25 83 -1z m475 9 c20 -20 14 -56 -13 -74 -23 -15 -27
-15 -50 0 -44 29 -28 86 25 86 14 0 31 -5 38 -12z m482 -2 c18 -23 8 -59 -22
-75 -24 -14 -28 -14 -47 3 -23 21 -27 56 -9 74 17 17 63 15 78 -2z m480 -5 c5
-11 10 -24 10 -30 0 -16 -38 -51 -54 -51 -37 0 -61 61 -34 88 19 19 66 15 78
-7z m480 -1 c24 -45 -25 -94 -69 -71 -23 13 -29 59 -9 79 20 20 66 15 78 -8z
m478 -22 c3 -32 -1 -40 -21 -49 -47 -21 -91 26 -67 71 9 17 19 20 48 18 35 -3
37 -5 40 -40z m475 21 c14 -23 1 -67 -23 -74 -43 -14 -82 35 -60 75 14 25 67
25 83 -1z m475 9 c18 -18 14 -53 -8 -73 -17 -15 -24 -16 -45 -7 -32 15 -41 37
-27 68 13 27 58 34 80 12z m480 0 c20 -20 14 -56 -13 -74 -23 -15 -27 -15 -50
0 -44 29 -28 86 25 86 14 0 31 -5 38 -12z m509 4 c12 -7 16 -25 14 -55 -2 -25
-43 -42 -70 -28 -23 13 -29 59 -9 79 13 13 47 16 65 4z m486 -13 c15 -24 1
-66 -25 -72 -45 -12 -80 32 -58 73 14 25 67 25 83 -1z m475 9 c35 -35 -14
-102 -57 -79 -45 25 -33 91 17 91 16 0 33 -5 40 -12z m480 0 c20 -20 14 -56
-13 -74 -23 -15 -27 -15 -50 0 -44 29 -28 86 25 86 14 0 31 -5 38 -12z m480 0
c20 -20 14 -56 -13 -74 -23 -15 -27 -15 -50 0 -44 29 -28 86 25 86 14 0 31 -5
38 -12z m482 -8 c14 -26 5 -57 -21 -71 -43 -23 -92 44 -57 79 20 20 66 15 78
-8z m480 0 c21 -40 -16 -88 -57 -73 -33 12 -45 57 -21 81 20 20 66 15 78 -8z
m468 8 c21 -21 15 -67 -12 -79 -42 -20 -74 9 -66 61 4 29 55 41 78 18z m485
-9 c15 -24 1 -66 -25 -72 -45 -12 -80 32 -58 73 14 25 67 25 83 -1z m-7938
-309 c27 -29 10 -74 -28 -78 -36 -4 -57 13 -57 49 0 47 53 65 85 29z m484 -12
c14 -24 14 -28 -3 -47 -35 -39 -86 -21 -86 29 0 55 62 68 89 18z m469 20 c7
-7 12 -24 12 -38 0 -53 -57 -69 -86 -25 -15 23 -15 27 0 50 18 27 54 33 74 13z
m476 -1 c22 -16 18 -65 -5 -80 -47 -29 -101 32 -64 73 21 23 44 25 69 7z m477
3 c23 -13 26 -62 5 -79 -46 -38 -111 25 -71 69 20 22 37 25 66 10z m483 -6
c32 -32 11 -84 -34 -84 -29 0 -50 22 -50 54 0 20 28 46 50 46 10 0 26 -7 34
-16z m481 -4 c15 -16 17 -26 9 -48 -17 -50 -94 -39 -94 14 0 49 52 70 85 34z
m480 0 c24 -27 13 -68 -22 -76 -34 -9 -57 6 -61 42 -6 49 49 72 83 34z m481
-5 c15 -23 15 -27 0 -50 -29 -44 -86 -28 -86 25 0 53 57 69 86 25z m508 9 c19
-18 21 -55 4 -72 -28 -28 -88 -2 -88 38 0 24 26 50 50 50 10 0 26 -7 34 -16z
m480 0 c19 -18 20 -38 6 -65 -12 -22 -59 -26 -78 -7 -28 28 -2 88 38 88 10 0
26 -7 34 -16z m481 -4 c27 -29 10 -74 -28 -78 -36 -4 -57 13 -57 49 0 47 53
65 85 29z m481 -5 c15 -23 15 -27 0 -50 -30 -45 -86 -28 -86 27 0 49 59 65 86
23z m472 13 c7 -7 12 -24 12 -38 0 -50 -55 -69 -84 -29 -33 47 32 107 72 67z
m473 2 c22 -12 26 -59 7 -78 -17 -17 -48 -15 -70 5 -22 20 -23 32 -2 61 17 24
35 28 65 12z m484 -6 c19 -20 16 -63 -6 -77 -26 -16 -68 0 -75 29 -12 48 46
83 81 48z m479 0 c19 -18 20 -38 6 -65 -21 -38 -90 -14 -90 31 0 24 26 50 50
50 10 0 26 -7 34 -16z m481 -4 c15 -16 17 -26 9 -48 -17 -50 -94 -39 -94 14 0
49 52 70 85 34z m-8411 -273 c22 -16 18 -65 -5 -80 -47 -29 -101 32 -64 73 21
23 44 25 69 7z m480 -3 c19 -18 21 -55 4 -72 -31 -31 -88 -4 -88 42 0 20 28
46 50 46 10 0 26 -7 34 -16z m480 0 c19 -18 20 -38 6 -65 -12 -22 -59 -26 -78
-7 -28 28 -2 88 38 88 10 0 26 -7 34 -16z m481 -4 c24 -27 13 -68 -22 -76 -34
-9 -57 6 -61 42 -6 49 49 72 83 34z m484 -12 c14 -24 14 -28 -3 -47 -35 -39
-86 -21 -86 29 0 55 62 68 89 18z m469 20 c7 -7 12 -24 12 -38 0 -53 -57 -69
-86 -25 -15 23 -15 27 0 50 18 27 54 33 74 13z m480 0 c7 -7 12 -24 12 -38 0
-48 -45 -67 -82 -33 -22 20 -23 41 -1 65 18 21 53 24 71 6z m473 2 c22 -12 26
-59 7 -78 -19 -19 -66 -15 -78 7 -14 27 -13 47 6 65 18 19 38 20 65 6z m483
-6 c32 -32 11 -84 -34 -84 -29 0 -50 22 -50 54 0 20 28 46 50 46 10 0 26 -7
34 -16z m522 -9 c15 -23 15 -27 0 -50 -29 -44 -86 -28 -86 25 0 53 57 69 86
25z m472 13 c7 -7 12 -24 12 -38 0 -53 -57 -69 -86 -25 -15 23 -15 27 0 50 18
27 54 33 74 13z m476 -1 c22 -16 18 -65 -5 -80 -47 -29 -101 32 -64 73 21 23
44 25 69 7z m480 -3 c19 -18 21 -55 4 -72 -28 -28 -88 -2 -88 38 0 24 26 50
50 50 10 0 26 -7 34 -16z m480 0 c19 -18 20 -38 6 -65 -21 -38 -90 -14 -90 31
0 24 26 50 50 50 10 0 26 -7 34 -16z m481 -4 c24 -27 13 -68 -22 -76 -34 -9
-57 6 -61 42 -6 49 49 72 83 34z m479 -3 c20 -30 10 -66 -22 -74 -33 -8 -56 8
-60 41 -7 54 53 78 82 33z m474 11 c7 -7 12 -24 12 -38 0 -53 -57 -69 -86 -25
-15 23 -15 27 0 50 18 27 54 33 74 13z m480 0 c7 -7 12 -24 12 -38 0 -48 -45
-67 -82 -33 -22 20 -23 32 -2 61 17 24 53 29 72 10z m-7934 -284 c32 -31 8
-84 -38 -84 -29 0 -46 18 -46 50 0 14 5 31 12 38 17 17 54 15 72 -4z m478 -1
c22 -20 23 -41 1 -65 -32 -36 -83 -17 -83 32 0 48 45 67 82 33z m476 5 c7 -7
12 -24 12 -38 0 -53 -57 -69 -86 -25 -15 23 -15 27 0 50 18 27 54 33 74 13z
m480 0 c7 -7 12 -24 12 -38 0 -48 -45 -67 -82 -33 -22 20 -23 41 -1 65 18 21
53 24 71 6z m480 0 c7 -7 12 -24 12 -38 0 -14 -5 -31 -12 -38 -28 -28 -88 -2
-88 38 0 40 60 66 88 38z m476 -4 c32 -32 11 -84 -34 -84 -29 0 -50 22 -50 54
0 20 28 46 50 46 10 0 26 -7 34 -16z m480 0 c32 -31 8 -84 -38 -84 -30 0 -46
18 -46 52 0 43 53 64 84 32z m478 -1 c22 -20 23 -41 1 -65 -32 -36 -83 -17
-83 32 0 48 45 67 82 33z m484 -8 c15 -23 15 -27 0 -50 -29 -44 -86 -28 -86
25 0 53 57 69 86 25z m508 9 c19 -18 20 -38 6 -65 -21 -38 -90 -14 -90 31 0
24 26 50 50 50 10 0 26 -7 34 -16z m480 0 c31 -30 9 -84 -34 -84 -24 0 -50 26
-50 50 0 24 26 50 50 50 10 0 26 -7 34 -16z m481 -4 c38 -42 -12 -98 -64 -70
-24 12 -29 58 -9 78 18 18 53 14 73 -8z m481 -5 c15 -23 15 -27 0 -50 -29 -44
-86 -28 -86 25 0 53 57 69 86 25z m472 13 c7 -7 12 -24 12 -38 0 -53 -57 -69
-86 -25 -15 23 -15 27 0 50 18 27 54 33 74 13z m480 0 c7 -7 12 -24 12 -38 0
-53 -57 -69 -86 -25 -15 23 -15 27 0 50 18 27 54 33 74 13z m473 2 c22 -12 26
-59 7 -78 -28 -28 -88 -2 -88 38 0 22 26 50 46 50 9 0 24 -5 35 -10z m483 -6
c19 -18 20 -38 6 -65 -21 -38 -90 -14 -90 31 0 24 26 50 50 50 10 0 26 -7 34
-16z m480 0 c9 -8 16 -24 16 -34 0 -22 -26 -50 -46 -50 -32 0 -54 21 -54 50 0
45 52 66 84 34z m-8406 -276 c7 -7 12 -24 12 -38 0 -31 -17 -50 -44 -50 -25 0
-56 28 -56 51 0 40 60 65 88 37z m486 -10 c17 -27 -4 -72 -35 -76 -30 -3 -59
20 -59 48 0 45 70 66 94 28z m470 6 c33 -32 8 -84 -39 -84 -38 0 -60 61 -33
88 17 17 54 15 72 -4z m480 0 c21 -20 20 -43 -1 -66 -32 -36 -83 -17 -83 32 0
14 5 31 12 38 17 17 54 15 72 -4z m482 -5 c17 -19 17 -23 3 -47 -27 -49 -89
-37 -89 17 0 51 51 69 86 30z m472 9 c7 -7 12 -24 12 -38 0 -53 -57 -69 -86
-25 -15 23 -15 27 0 50 18 27 54 33 74 13z m480 0 c7 -7 12 -24 12 -38 0 -48
-45 -67 -82 -33 -22 20 -23 41 -1 65 18 21 53 24 71 6z m480 0 c7 -7 12 -24
12 -38 0 -14 -5 -31 -12 -38 -28 -28 -88 -2 -88 38 0 40 60 66 88 38z m476 -4
c31 -30 9 -84 -34 -84 -24 0 -50 26 -50 50 0 24 26 50 50 50 10 0 26 -7 34
-16z m522 -9 c15 -23 15 -27 0 -50 -29 -44 -86 -28 -86 25 0 53 57 69 86 25z
m472 13 c7 -7 12 -24 12 -38 0 -53 -57 -69 -86 -25 -15 23 -15 27 0 50 18 27
54 33 74 13z m480 0 c7 -7 12 -24 12 -38 0 -31 -17 -50 -44 -50 -25 0 -56 28
-56 51 0 40 60 65 88 37z m473 2 c36 -20 16 -90 -26 -90 -28 0 -55 24 -55 50
0 22 26 50 46 50 9 0 24 -5 35 -10z m483 -6 c31 -30 9 -84 -34 -84 -26 0 -50
27 -50 55 0 40 54 59 84 29z m480 0 c22 -21 20 -47 -4 -69 -44 -40 -107 25
-69 71 15 19 54 18 73 -2z m482 -9 c15 -23 15 -27 0 -50 -29 -44 -86 -28 -86
25 0 53 57 69 86 25z m472 13 c7 -7 12 -24 12 -38 0 -53 -57 -69 -86 -25 -15
23 -15 27 0 50 18 27 54 33 74 13z m480 0 c17 -17 15 -63 -2 -78 -23 -18 -59
-8 -75 22 -14 24 -14 28 3 47 21 23 56 27 74 9z m-7928 -297 c5 -11 10 -24 10
-30 0 -16 -38 -51 -54 -51 -37 0 -61 61 -34 88 19 19 66 15 78 -7z m480 -1
c15 -27 4 -59 -25 -72 -46 -21 -79 23 -59 76 9 24 71 21 84 -4z m478 -22 c2
-29 -1 -39 -18 -48 -45 -24 -88 17 -70 65 9 23 15 26 47 23 36 -3 38 -5 41
-40z m475 21 c14 -23 1 -67 -23 -74 -43 -14 -82 35 -60 75 14 25 67 25 83 -1z
m475 9 c18 -18 14 -53 -8 -73 -17 -15 -24 -16 -45 -7 -32 15 -41 37 -27 68 13
27 58 34 80 12z m480 0 c20 -20 14 -56 -13 -74 -23 -15 -27 -15 -50 0 -44 29
-28 86 25 86 14 0 31 -5 38 -12z m480 0 c20 -20 14 -56 -13 -74 -23 -15 -27
-15 -50 0 -44 29 -28 86 25 86 14 0 31 -5 38 -12z m482 -7 c5 -11 10 -24 10
-30 0 -16 -38 -51 -54 -51 -37 0 -61 61 -34 88 19 19 66 15 78 -7z m480 -1
c24 -45 -25 -94 -69 -71 -15 8 -21 21 -21 45 0 41 5 46 46 46 23 0 37 -6 44
-20z m508 8 c20 -20 14 -56 -13 -74 -23 -15 -27 -15 -50 0 -44 29 -28 86 25
86 14 0 31 -5 38 -12z m480 0 c20 -20 14 -56 -13 -74 -23 -15 -27 -15 -50 0
-44 29 -28 86 25 86 14 0 31 -5 38 -12z m482 -8 c15 -28 4 -59 -26 -72 -19 -9
-28 -8 -44 7 -22 20 -26 55 -8 73 20 20 66 15 78 -8z m480 1 c5 -11 10 -24 10
-30 0 -16 -38 -51 -54 -51 -37 0 -61 61 -34 88 19 19 66 15 78 -7z m468 7 c21
-21 15 -67 -12 -79 -42 -20 -74 9 -66 61 4 29 55 41 78 18z m480 0 c21 -21 15
-68 -10 -77 -49 -18 -92 24 -69 68 13 23 59 29 79 9z m480 0 c18 -18 14 -53
-8 -73 -17 -15 -24 -16 -45 -7 -32 15 -41 37 -27 68 13 27 58 34 80 12z m480
0 c18 -18 14 -53 -9 -74 -19 -17 -23 -17 -47 -3 -30 16 -40 52 -22 75 15 17
61 19 78 2z m480 0 c20 -20 14 -56 -13 -74 -23 -15 -27 -15 -50 0 -44 29 -28
86 25 86 14 0 31 -5 38 -12z m-8400 -311 c4 -34 -37 -64 -66 -48 -39 21 -38
75 1 91 29 11 61 -10 65 -43z m460 37 c30 -21 29 -59 -3 -80 -23 -15 -27 -15
-50 0 -32 21 -33 59 -3 80 12 9 25 16 28 16 3 0 16 -7 28 -16z m480 0 c30 -21
29 -59 -3 -80 -23 -15 -27 -15 -50 0 -32 21 -33 59 -3 80 12 9 25 16 28 16 3
0 16 -7 28 -16z m493 -16 c13 -24 3 -55 -22 -69 -28 -14 -69 13 -69 46 0 48
68 66 91 23z m480 0 c23 -43 -26 -92 -70 -69 -30 17 -30 78 1 90 30 11 56 3
69 -21z m477 -21 c2 -28 -1 -38 -18 -47 -26 -14 -57 -5 -71 21 -22 42 20 86
66 69 14 -5 21 -18 23 -43z m479 17 c9 -25 -6 -61 -29 -67 -41 -11 -75 25 -62
65 12 39 76 40 91 2z m481 -17 c2 -19 -4 -30 -22 -43 -24 -15 -28 -15 -52 0
-33 22 -30 65 6 83 32 16 64 -3 68 -40z m460 37 c30 -21 29 -59 -3 -80 -23
-15 -27 -15 -50 0 -32 21 -33 59 -3 80 12 9 25 16 28 16 3 0 16 -7 28 -16z
m531 -18 c18 -47 -25 -90 -68 -67 -30 17 -30 78 1 90 31 11 58 2 67 -23z m478
-2 c9 -24 -6 -62 -27 -69 -39 -12 -77 27 -64 67 12 39 76 40 91 2z m481 -17
c4 -34 -37 -64 -66 -48 -39 21 -38 75 1 91 29 11 61 -10 65 -43z m1433 20 c17
-31 -4 -67 -39 -67 -34 0 -52 16 -52 46 0 48 69 64 91 21z m480 0 c17 -31 -4
-67 -39 -67 -34 0 -52 16 -52 46 0 48 69 64 91 21z m474 -23 c0 -38 -1 -39
-38 -42 -31 -3 -39 0 -46 20 -17 47 18 85 64 68 15 -6 20 -16 20 -46z m480 -5
c0 -32 -2 -34 -37 -37 -29 -2 -39 1 -48 18 -24 45 23 92 65 65 14 -8 20 -23
20 -46z m-2397 39 c20 -20 14 -56 -13 -74 -23 -15 -27 -15 -50 0 -44 29 -28
86 25 86 14 0 31 -5 38 -12z m480 0 c20 -20 14 -56 -13 -74 -23 -15 -27 -15
-50 0 -44 29 -28 86 25 86 14 0 31 -5 38 -12z m-1690 -274 c41 -29 23 -84 -28
-84 -32 0 -50 17 -50 46 0 20 32 54 50 54 3 0 16 -7 28 -16z m480 0 c41 -29
23 -84 -28 -84 -32 0 -50 17 -50 46 0 20 32 54 50 54 3 0 16 -7 28 -16z m482
-4 c23 -23 24 -33 10 -61 -12 -22 -59 -26 -78 -7 -19 19 -14 55 10 72 29 20
34 20 58 -4z m480 0 c36 -36 15 -84 -34 -78 -66 7 -60 86 7 97 4 0 16 -8 27
-19z m464 10 c46 -17 30 -90 -18 -90 -12 0 -27 4 -35 9 -20 13 -17 62 5 78 21
16 17 15 48 3z m484 -6 c24 -17 29 -53 10 -72 -19 -19 -66 -15 -78 7 -14 28
-13 38 10 61 24 24 29 24 58 4z m480 0 c12 -8 22 -26 22 -38 0 -54 -77 -64
-95 -12 -8 24 -6 31 14 47 28 23 31 23 59 3z m480 0 c41 -29 23 -84 -28 -84
-32 0 -50 17 -50 46 0 20 32 54 50 54 3 0 16 -7 28 -16z m480 0 c41 -29 23
-84 -28 -84 -32 0 -50 17 -50 46 0 20 32 54 50 54 3 0 16 -7 28 -16z"/>
</g>
</svg>
